<svg xmlns="http://www.w3.org/2000/svg" xml:space="preserve" style="enable-background:new 0 0 272 271" viewBox="0 0 272 271"><switch><g><path d="M135.9 2.3C209.4 2.3 269 61.9 269 135.4s-59.6 133.1-133.1 133.1S2.8 208.9 2.8 135.4 62.4 2.3 135.9 2.3z" style="fill:#213b56;stroke:#213b56;stroke-width:4.386"/><path d="M25.1 92.5h31.5l33.9 90.7h103.9l24.5-79.7H74.2l2.3 7.4h133.1l-19.9 66.2H95.2L60.2 84H21.7l3.4 8.5zm79.4 25.7 2.3 17.2h2.3l-2.3-17.2h-2.3zm4.7 30.7 2.3 18.4h2.3l-2.3-18.4h-2.3zm21-30.7h2.3l1.2 17.2h-2.3l-1.2-17.2zm3.5 49.1h2.3l-1.2-18.4h-2.3l1.2 18.4zm19.9 0h2.3l1.2-18.4h-2.3l-1.2 18.4zm1.2-31.9h2.3l1.2-17.2H156l-1.2 17.2zm19.8 30.6h2.3l2.3-17.2H177l-2.4 17.2zm4.7-30.6h2.3l2.3-17.2h-2.3l-2.3 17.2z" style="fill:#fff;stroke:#fff;stroke-width:2;enable-background:new"/></g></switch></svg>